<svg version="1" xmlns="http://www.w3.org/2000/svg" width="682.667" height="682.667" viewBox="0 0 512.000000 512.000000"><path d="M174.9 31.4c-.2.2-3 .7-6.1 1-18.6 2.2-35.8 10.1-45.6 21.2-9.4 10.5-13.2 22.5-12.8 39.9.3 11.8.7 14.3 3.3 20.8 3.9 9.9 11.3 18.9 21.3 25.7 8.2 5.6 12.1 7.3 38.4 17.5 24.7 9.5 29.6 12.3 29.6 16.7 0 6.2-6.3 9-19.5 8.7-16.6-.4-33-5-53.3-15.1-6.7-3.4-12.3-5.9-12.5-5.7-.2.2-4.1 8.7-8.7 18.9s-9.6 21.2-11.2 24.4c-3.3 7-3.4 7.5-1.1 8.3 1.9.6 9.4 3.8 12.8 5.3 2.1 1 16.8 5.7 20.1 6.5 11.4 2.7 17.8 3.9 29.9 5.5 6.7.9 41.4.6 46-.5 1.7-.3 5-1.1 7.5-1.6 29-6.3 45.8-22.2 50.7-47.9 1.1-5.7.9-18-.4-25.4-1.7-10.3-6-19-12.5-25.7-9.6-10-17.1-13.9-45.8-24.4-31.4-11.5-35-13.7-33.5-20.6 1-4.3 5.8-6.2 15.5-6.1 13.3.3 21.9 2.1 41.9 8.8 7.4 2.4 13.7 4.1 14.1 3.7.6-.6 14.9-41.3 16.7-47.4.3-1.2-1.3-2.1-6.9-3.8-6.6-2-25-5.9-35.3-7.6-4.7-.8-41.9-1.8-42.6-1.1zM296.5 196v31H358v-62h-61.5v31zM83.3 289.2c.2.7 2.5 7.1 5.1 14.3 2.6 7.1 5.1 13.9 5.6 15 .5 1.1 7.9 21.3 16.5 45 8.6 23.6 17.2 47 19 52 4.1 11.2 21.5 58.8 24.5 67.2l2.3 6.3h56.5l1-2.8c2-5 12-31.5 17.2-45.7 2.8-7.7 5.5-14.9 6-16 1.3-3.3 3.5-9 3.6-9.5 0-.3.5-1.6 1.1-3 .5-1.4 4.1-10.7 7.8-20.8 3.7-10.1 7.1-18 7.5-17.5.4.4 2.5 5.7 4.8 11.8 4.5 12.1 36.3 96.3 38.1 100.8l1.1 2.7 28.2-.2 28.2-.3 4.8-13c2.7-7.2 6.1-16.6 7.7-21 1.6-4.4 12-33 23.1-63.5 11.1-30.5 24-65.9 28.6-78.6 4.6-12.7 8.4-23.4 8.4-23.8 0-.3-14.6-.6-32.4-.6h-32.4l-1.6 4.7c-.8 2.7-4.2 13.6-7.6 24.3-3.4 10.7-6.9 21.7-7.8 24.5-.9 2.7-1.7 5.2-1.7 5.5-.4 1.8-6.8 21.9-7.5 23.5-.5 1.1-1.2 3.1-1.5 4.5-1.8 6.9-8.8 28.1-9.4 28.5-.4.2-1.9-3.1-3.3-7.3-1.5-4.2-5.9-16.9-9.8-28.2-3.9-11.3-9.4-27-12.1-35-2.8-8-6.8-19.7-9-26-2.2-6.3-4.6-13.1-5.2-15l-1.2-3.5-30.5-.3-30.6-.2-11.3 32.7c-6.2 18.1-15.4 44.5-20.4 58.7l-9.1 26-2.4-7.5c-1.3-4.1-2.5-8.1-2.7-8.9-.2-.8-4.3-13.7-9-28.5-4.8-14.9-9.7-30.4-11-34.5-1.3-4.1-4.5-14.4-7.2-22.7l-4.8-15.3h-32.9c-25.8 0-32.7.3-32.3 1.2z"/></svg>