<?xml version="1.0" encoding="utf-8"?>
<!-- Generator: Adobe Illustrator 24.2.0, SVG Export Plug-In . SVG Version: 6.00 Build 0)  -->
<svg version="1.1" id="Layer_1" xmlns="http://www.w3.org/2000/svg" xmlns:xlink="http://www.w3.org/1999/xlink" x="0px" y="0px"
	 viewBox="0 0 200 200" style="enable-background:new 0 0 200 200;" xml:space="preserve">
<style type="text/css">
	.st0{fill:#1A1A1A;}
</style>
<path class="st0" d="M200,38.3c-7.5,3.3-15,5.8-23.3,6.7c8.3-5,15-13.3,18.3-22.5c-8.3,5-16.7,8.3-25.8,10
	c-7.5-8.3-18.3-13.3-30-13.3c-26.7,0-45.8,25-40,50c-35-1.7-65-18.3-85-43.3C3.3,45,8.3,69.2,26.7,80.8c-6.7,0-13.3-1.7-18.3-5
	C7.5,95,21.7,112.5,40.8,116.7c-5.8,1.7-12.5,1.7-18.3,0.8c5,16.7,20,28.3,38.3,28.3C43.3,159.2,21.7,165,0,162.5
	c18.3,11.7,40,18.3,62.5,18.3c75.8,0,119.2-64.2,116.7-121.7C187.5,53.3,194.2,45.8,200,38.3z"/>
</svg>
